<svg xmlns="http://www.w3.org/2000/svg" xmlns:xlink="http://www.w3.org/1999/xlink" width="500" zoomAndPan="magnify" viewBox="0 0 375 374.999991" height="500" preserveAspectRatio="xMidYMid meet" version="1.0"><defs><clipPath id="ef222045c9"><path d="M 47.601562 37.5 L 327.351562 37.5 L 327.351562 306.75 L 47.601562 306.75 Z M 47.601562 37.5 " clip-rule="nonzero"/></clipPath></defs><path fill="#ffffff" d="M 287.503906 226.226562 L 256.078125 257.695312 L 249.160156 248.007812 C 247.726562 245.992188 244.921875 245.519531 242.910156 246.957031 C 240.898438 248.390625 240.421875 251.195312 241.863281 253.207031 L 251.863281 267.199219 C 252.011719 267.402344 252.171875 267.597656 252.355469 267.78125 C 254.109375 269.519531 256.945312 269.515625 258.6875 267.757812 L 293.859375 232.542969 C 295.605469 230.789062 295.59375 227.953125 293.839844 226.210938 C 292.082031 224.464844 289.246094 224.472656 287.503906 226.226562 Z M 287.503906 226.226562 " fill-opacity="1" fill-rule="nonzero"/><g clip-path="url(#ef222045c9)"><path fill="#ffffff" d="M 309.949219 204.871094 C 307.75 202.65625 305.328125 200.65625 302.804688 198.8125 L 302.804688 105.59375 C 302.804688 105.566406 302.820312 105.546875 302.820312 105.519531 C 302.820312 105.492188 302.804688 105.46875 302.804688 105.441406 L 302.804688 66.855469 C 302.804688 64.375 300.792969 62.363281 298.3125 62.363281 L 274.027344 62.363281 L 274.027344 41.996094 C 274.027344 39.511719 272.015625 37.5 269.535156 37.5 L 247.132812 37.5 C 244.652344 37.5 242.636719 39.511719 242.636719 41.996094 L 242.636719 62.355469 L 107.867188 62.355469 L 107.867188 41.996094 C 107.867188 39.511719 105.851562 37.5 103.371094 37.5 L 80.96875 37.5 C 78.488281 37.5 76.476562 39.511719 76.476562 41.996094 L 76.476562 62.355469 L 52.191406 62.355469 C 49.710938 62.355469 47.699219 64.367188 47.699219 66.851562 L 47.699219 279.410156 C 47.699219 281.894531 49.710938 283.90625 52.191406 283.90625 L 221.6875 283.90625 C 223.113281 285.722656 224.609375 287.476562 226.234375 289.113281 C 236.949219 299.90625 251.753906 306.589844 268.09375 306.589844 C 284.429688 306.589844 299.234375 299.90625 309.957031 289.113281 C 320.671875 278.320312 327.300781 263.425781 327.300781 246.992188 C 327.292969 230.558594 320.664062 215.664062 309.949219 204.871094 Z M 251.625 66.851562 L 251.625 46.488281 L 265.039062 46.488281 L 265.039062 79.800781 L 251.625 79.800781 Z M 85.464844 46.488281 L 98.878906 46.488281 L 98.878906 79.800781 L 85.464844 79.800781 Z M 56.6875 71.34375 L 76.480469 71.34375 L 76.480469 84.296875 C 76.480469 86.777344 78.496094 88.792969 80.976562 88.792969 L 103.378906 88.792969 C 105.859375 88.792969 107.875 86.777344 107.875 84.296875 L 107.875 71.34375 L 242.644531 71.34375 L 242.644531 84.296875 C 242.644531 86.777344 244.65625 88.792969 247.140625 88.792969 L 269.542969 88.792969 C 272.023438 88.792969 274.035156 86.777344 274.035156 84.296875 L 274.035156 71.34375 L 293.832031 71.34375 L 293.832031 101.015625 L 56.6875 101.015625 Z M 56.6875 274.917969 L 56.6875 110.003906 L 293.816406 110.003906 L 293.816406 193.394531 C 286.023438 189.59375 277.320312 187.398438 268.085938 187.398438 C 264.894531 187.398438 261.777344 187.726562 258.714844 188.214844 C 258.308594 188.097656 257.910156 187.964844 257.46875 187.964844 L 232.417969 187.964844 C 229.9375 187.964844 227.925781 189.976562 227.925781 192.457031 C 227.925781 194.9375 229.9375 196.953125 232.417969 196.953125 L 236.03125 196.953125 C 232.496094 199.253906 229.195312 201.886719 226.234375 204.871094 C 219.171875 211.980469 213.9375 220.898438 211.15625 230.847656 C 211.097656 230.847656 211.058594 230.816406 211.007812 230.816406 L 185.957031 230.816406 C 183.476562 230.816406 181.460938 232.832031 181.460938 235.3125 C 181.460938 237.792969 183.476562 239.808594 185.957031 239.808594 L 209.367188 239.808594 C 209.078125 242.167969 208.890625 244.558594 208.890625 246.992188 C 208.890625 257.078125 211.40625 266.578125 215.816406 274.917969 Z M 303.597656 282.792969 C 294.515625 291.9375 281.960938 297.597656 268.085938 297.597656 C 254.21875 297.597656 241.660156 291.945312 232.578125 282.792969 C 223.492188 273.644531 217.871094 260.988281 217.871094 246.992188 C 217.871094 233 223.492188 220.339844 232.578125 211.191406 C 241.660156 202.046875 254.214844 196.386719 268.085938 196.386719 C 281.957031 196.386719 294.507812 202.042969 303.597656 211.191406 C 312.683594 220.339844 318.304688 233 318.304688 246.992188 C 318.304688 260.988281 312.683594 273.644531 303.597656 282.792969 Z M 303.597656 282.792969 " fill-opacity="1" fill-rule="nonzero"/></g><path fill="#ffffff" d="M 185.957031 196.953125 L 211.007812 196.953125 C 213.488281 196.953125 215.503906 194.9375 215.503906 192.457031 C 215.503906 189.976562 213.488281 187.964844 211.007812 187.964844 L 185.957031 187.964844 C 183.476562 187.964844 181.460938 189.976562 181.460938 192.457031 C 181.460938 194.9375 183.476562 196.953125 185.957031 196.953125 Z M 185.957031 196.953125 " fill-opacity="1" fill-rule="nonzero"/><path fill="#ffffff" d="M 185.957031 154.105469 L 211.007812 154.105469 C 213.488281 154.105469 215.503906 152.089844 215.503906 149.609375 C 215.503906 147.128906 213.488281 145.117188 211.007812 145.117188 L 185.957031 145.117188 C 183.476562 145.117188 181.460938 147.128906 181.460938 149.609375 C 181.460938 152.089844 183.476562 154.105469 185.957031 154.105469 Z M 185.957031 154.105469 " fill-opacity="1" fill-rule="nonzero"/><path fill="#ffffff" d="M 232.417969 154.105469 L 257.46875 154.105469 C 259.953125 154.105469 261.964844 152.089844 261.964844 149.609375 C 261.964844 147.128906 259.953125 145.117188 257.46875 145.117188 L 232.417969 145.117188 C 229.9375 145.117188 227.925781 147.128906 227.925781 149.609375 C 227.925781 152.089844 229.9375 154.105469 232.417969 154.105469 Z M 232.417969 154.105469 " fill-opacity="1" fill-rule="nonzero"/><path fill="#ffffff" d="M 164.546875 145.117188 L 139.496094 145.117188 C 137.015625 145.117188 135 147.128906 135 149.609375 C 135 152.089844 137.015625 154.105469 139.496094 154.105469 L 164.546875 154.105469 C 167.027344 154.105469 169.042969 152.089844 169.042969 149.609375 C 169.042969 147.128906 167.027344 145.117188 164.546875 145.117188 Z M 164.546875 145.117188 " fill-opacity="1" fill-rule="nonzero"/><path fill="#ffffff" d="M 164.546875 187.96875 L 139.496094 187.96875 C 137.015625 187.96875 135 189.984375 135 192.464844 C 135 194.945312 137.015625 196.960938 139.496094 196.960938 L 164.546875 196.960938 C 167.027344 196.960938 169.042969 194.945312 169.042969 192.464844 C 169.042969 189.984375 167.027344 187.96875 164.546875 187.96875 Z M 164.546875 187.96875 " fill-opacity="1" fill-rule="nonzero"/><path fill="#ffffff" d="M 164.546875 230.820312 L 139.496094 230.820312 C 137.015625 230.820312 135 232.832031 135 235.3125 C 135 237.792969 137.015625 239.808594 139.496094 239.808594 L 164.546875 239.808594 C 167.027344 239.808594 169.042969 237.792969 169.042969 235.3125 C 169.042969 232.832031 167.027344 230.820312 164.546875 230.820312 Z M 164.546875 230.820312 " fill-opacity="1" fill-rule="nonzero"/><path fill="#ffffff" d="M 118.085938 187.96875 L 93.035156 187.96875 C 90.550781 187.96875 88.539062 189.984375 88.539062 192.464844 C 88.539062 194.945312 90.550781 196.960938 93.035156 196.960938 L 118.085938 196.960938 C 120.566406 196.960938 122.578125 194.945312 122.578125 192.464844 C 122.578125 189.984375 120.566406 187.96875 118.085938 187.96875 Z M 118.085938 187.96875 " fill-opacity="1" fill-rule="nonzero"/><path fill="#ffffff" d="M 118.085938 230.820312 L 93.035156 230.820312 C 90.550781 230.820312 88.539062 232.832031 88.539062 235.3125 C 88.539062 237.792969 90.550781 239.808594 93.035156 239.808594 L 118.085938 239.808594 C 120.566406 239.808594 122.578125 237.792969 122.578125 235.3125 C 122.578125 232.832031 120.566406 230.820312 118.085938 230.820312 Z M 118.085938 230.820312 " fill-opacity="1" fill-rule="nonzero"/><path fill="#ffffff" d="M 118.085938 145.117188 L 93.035156 145.117188 C 90.550781 145.117188 88.539062 147.128906 88.539062 149.609375 C 88.539062 152.089844 90.550781 154.105469 93.035156 154.105469 L 118.085938 154.105469 C 120.566406 154.105469 122.578125 152.089844 122.578125 149.609375 C 122.578125 147.128906 120.566406 145.117188 118.085938 145.117188 Z M 118.085938 145.117188 " fill-opacity="1" fill-rule="nonzero"/></svg>