<svg xmlns="http://www.w3.org/2000/svg" xmlns:xlink="http://www.w3.org/1999/xlink" width="500" zoomAndPan="magnify" viewBox="0 0 375 374.999991" height="500" preserveAspectRatio="xMidYMid meet" version="1.0"><defs><clipPath id="6a77d51027"><path d="M 59.558594 154 L 99 154 L 99 215 L 59.558594 215 Z M 59.558594 154 " clip-rule="nonzero"/></clipPath><clipPath id="0368de98b7"><path d="M 108 253 L 254 253 L 254 348.644531 L 108 348.644531 Z M 108 253 " clip-rule="nonzero"/></clipPath><clipPath id="7ebb546906"><path d="M 250 222 L 315.308594 222 L 315.308594 314 L 250 314 Z M 250 222 " clip-rule="nonzero"/></clipPath><clipPath id="4d434c7858"><path d="M 170 26.144531 L 289 26.144531 L 289 181 L 170 181 Z M 170 26.144531 " clip-rule="nonzero"/></clipPath></defs><rect x="-37.5" width="450" fill="#ffffff" y="-37.499999" height="449.999989" fill-opacity="1"/><rect x="-37.5" width="450" fill="#ffffff" y="-37.499999" height="449.999989" fill-opacity="1"/><path fill="#0071bc" d="M 181.414062 92.960938 L 118.09375 156.277344 L 94.542969 132.730469 C 116.578125 109.496094 147.25 94.527344 181.414062 92.960938 " fill-opacity="1" fill-rule="nonzero"/><g clip-path="url(#6a77d51027)"><path fill="#0071bc" d="M 98.578125 175.789062 L 59.589844 214.773438 C 60.589844 192.9375 67.070312 172.53125 77.679688 154.890625 L 98.578125 175.789062 " fill-opacity="1" fill-rule="nonzero"/></g><path fill="#0071bc" d="M 156.464844 233.664062 L 88.375 301.746094 C 76.316406 287.03125 67.476562 269.578125 62.925781 250.460938 L 118.09375 195.300781 L 156.464844 233.664062 " fill-opacity="1" fill-rule="nonzero"/><g clip-path="url(#0368de98b7)"><path fill="#0071bc" d="M 253.226562 330.417969 C 233.988281 341.988281 211.460938 348.644531 187.378906 348.644531 C 157.414062 348.644531 129.859375 338.34375 108.054688 321.089844 L 175.976562 253.179688 L 253.226562 330.417969 " fill-opacity="1" fill-rule="nonzero"/></g><path fill="#0071bc" d="M 311.089844 188.066406 L 230.488281 268.660156 L 137.609375 175.789062 L 217.105469 96.296875 C 262.894531 107.195312 299.140625 142.699219 311.089844 188.066406 " fill-opacity="1" fill-rule="nonzero"/><g clip-path="url(#7ebb546906)"><path fill="#0071bc" d="M 315.28125 222.898438 C 314.691406 258.582031 299.484375 290.707031 275.390625 313.554688 L 250.003906 288.171875 L 315.28125 222.898438 " fill-opacity="1" fill-rule="nonzero"/></g><path fill="#f2f2f2" d="M 256.804688 179.070312 C 256.804688 183.410156 244.433594 186.929688 229.175781 186.929688 C 213.917969 186.929688 201.550781 183.410156 201.550781 179.070312 C 201.550781 174.730469 213.917969 171.210938 229.175781 171.210938 C 244.433594 171.210938 256.804688 174.730469 256.804688 179.070312 " fill-opacity="1" fill-rule="nonzero"/><path fill="#cccccc" d="M 256.21875 180.683594 C 256.1875 180.726562 256.15625 180.769531 256.121094 180.8125 C 256.109375 180.828125 256.101562 180.839844 256.089844 180.851562 C 256.058594 180.890625 256.027344 180.925781 255.996094 180.960938 C 255.984375 180.976562 255.96875 180.996094 255.957031 181.011719 C 255.917969 181.054688 255.875 181.097656 255.835938 181.140625 C 255.820312 181.15625 255.804688 181.167969 255.789062 181.1875 C 255.753906 181.21875 255.722656 181.253906 255.6875 181.289062 C 255.671875 181.304688 255.65625 181.316406 255.644531 181.332031 C 255.597656 181.375 255.550781 181.414062 255.503906 181.457031 C 255.484375 181.476562 255.46875 181.492188 255.449219 181.507812 C 255.40625 181.542969 255.363281 181.578125 255.320312 181.617188 C 255.300781 181.628906 255.285156 181.644531 255.269531 181.65625 C 255.222656 181.695312 255.175781 181.734375 255.125 181.773438 C 255.105469 181.789062 255.085938 181.804688 255.066406 181.820312 C 255.007812 181.859375 254.953125 181.902344 254.894531 181.945312 C 254.878906 181.957031 254.863281 181.96875 254.847656 181.980469 C 254.796875 182.015625 254.746094 182.050781 254.695312 182.085938 C 254.675781 182.097656 254.65625 182.109375 254.640625 182.125 C 254.574219 182.164062 254.511719 182.207031 254.445312 182.25 C 254.429688 182.261719 254.410156 182.273438 254.394531 182.285156 C 254.332031 182.324219 254.269531 182.363281 254.203125 182.402344 C 254.195312 182.40625 254.183594 182.414062 254.175781 182.417969 C 249.75 185.085938 240.222656 186.929688 229.175781 186.929688 C 217.734375 186.929688 207.917969 184.949219 203.722656 182.128906 C 203.695312 182.113281 203.671875 182.09375 203.648438 182.078125 C 203.601562 182.046875 203.554688 182.011719 203.507812 181.980469 C 203.480469 181.964844 203.457031 181.945312 203.433594 181.929688 C 203.386719 181.894531 203.339844 181.859375 203.296875 181.828125 C 203.277344 181.8125 203.257812 181.796875 203.242188 181.785156 C 203.1875 181.742188 203.136719 181.703125 203.089844 181.660156 C 203.070312 181.648438 203.054688 181.632812 203.035156 181.617188 C 202.984375 181.578125 202.9375 181.535156 202.890625 181.492188 C 202.875 181.480469 202.859375 181.464844 202.84375 181.453125 C 202.800781 181.414062 202.757812 181.375 202.714844 181.335938 C 202.703125 181.324219 202.691406 181.3125 202.679688 181.300781 C 202.636719 181.257812 202.597656 181.21875 202.558594 181.179688 C 202.546875 181.167969 202.53125 181.15625 202.519531 181.140625 C 202.480469 181.097656 202.4375 181.054688 202.402344 181.011719 C 202.386719 180.996094 202.375 180.984375 202.363281 180.96875 C 202.324219 180.925781 202.289062 180.882812 202.253906 180.839844 C 202.242188 180.824219 202.230469 180.8125 202.222656 180.800781 C 202.191406 180.757812 202.15625 180.71875 202.128906 180.675781 C 201.75 180.160156 201.550781 179.621094 201.550781 179.070312 L 201.550781 182.246094 C 201.550781 186.585938 213.917969 190.105469 229.175781 190.105469 C 244.433594 190.105469 256.804688 186.585938 256.804688 182.246094 L 256.804688 179.070312 C 256.804688 179.625 256.601562 180.164062 256.21875 180.683594 " fill-opacity="1" fill-rule="nonzero"/><g clip-path="url(#4d434c7858)"><path fill="#e33824" d="M 288.09375 85.058594 C 288.09375 120.371094 237.296875 180.65625 229.171875 180.65625 C 222.203125 180.65625 170.257812 123.914062 170.257812 85.058594 C 170.257812 52.523438 196.636719 26.144531 229.175781 26.144531 C 261.714844 26.144531 288.09375 52.523438 288.09375 85.058594 " fill-opacity="1" fill-rule="nonzero"/></g><path fill="#f2f2f2" d="M 265.351562 85.054688 C 265.351562 105.03125 249.15625 121.226562 229.175781 121.226562 C 209.199219 121.226562 193 105.03125 193 85.054688 C 193 65.078125 209.199219 48.886719 229.175781 48.886719 C 249.15625 48.886719 265.351562 65.078125 265.351562 85.054688 " fill-opacity="1" fill-rule="nonzero"/></svg>